HIERARCHY
ROOT Hips
{
	OFFSET 0.000000 0.000000 0.000000
	CHANNELS 6 Xposition Yposition Zposition Xrotation Yrotation Zrotation
	JOINT LeftUpLeg_virtual
	{
		OFFSET 0.000000 0.000000 0.000000
		CHANNELS 3 Xrotation Yrotation Zrotation
		JOINT LeftUpLeg
		{
			OFFSET 13.026900 -6.336304 -1.092800
			CHANNELS 3 Xrotation Yrotation Zrotation
			JOINT LeftLeg
			{
				OFFSET 0.524474 -46.096886 9.782700
				CHANNELS 3 Xrotation Yrotation Zrotation
				JOINT LeftFoot
				{
					OFFSET -0.524474 -53.427422 -12.948200
					CHANNELS 3 Xrotation Yrotation Zrotation
					JOINT LeftToeBase
					{
						OFFSET 0.192200 -14.009700 16.364100
						CHANNELS 3 Xrotation Yrotation Zrotation
						JOINT LeftToe_End
						{
							OFFSET -1.784700 -0.561700 9.474800
							CHANNELS 3 Xrotation Yrotation Zrotation
							End Site
							{
								OFFSET 0 0 0
							}
						}
					}
				}
			}
		}
	}
	JOINT RightUpLeg_virtual
	{
		OFFSET 0.000000 0.000000 0.000000
		CHANNELS 3 Xrotation Yrotation Zrotation
		JOINT RightUpLeg
		{
			OFFSET -12.883000 -6.336304 -1.092800
			CHANNELS 3 Xrotation Yrotation Zrotation
			JOINT RightLeg
			{
				OFFSET -0.524587 -46.096825 9.782800
				CHANNELS 3 Xrotation Yrotation Zrotation
				JOINT RightFoot
				{
					OFFSET 0.524587 -53.427383 -12.948300
					CHANNELS 3 Xrotation Yrotation Zrotation
					JOINT RightToeBase
					{
						OFFSET -0.192200 -14.009700 16.364100
						CHANNELS 3 Xrotation Yrotation Zrotation
						JOINT RightToe_End
						{
							OFFSET 1.784700 -0.561700 9.474800
							CHANNELS 3 Xrotation Yrotation Zrotation
							End Site
							{
								OFFSET 0 0 0
							}
						}
					}
				}
			}
		}
	}
	JOINT Spine_virtual
	{
		OFFSET 0.000000 0.000000 0.000000
		CHANNELS 3 Xrotation Yrotation Zrotation
		JOINT Spine
		{
			OFFSET 0.072000 7.257294 -0.789700
			CHANNELS 3 Xrotation Yrotation Zrotation
			JOINT Spine1
			{
				OFFSET 0.000000 12.508769 -0.658067
				CHANNELS 3 Xrotation Yrotation Zrotation
				JOINT Spine1_split
				{
					OFFSET 0.000000 12.508769 -0.658067
					CHANNELS 3 Xrotation Yrotation Zrotation
					JOINT Spine2
					{
						OFFSET 0.000000 12.508769 -0.658067
						CHANNELS 3 Xrotation Yrotation Zrotation
						JOINT Neck_virtual
						{
							OFFSET 0.000000 0.000000 0.000000
							CHANNELS 3 Xrotation Yrotation Zrotation
							JOINT Neck
							{
								OFFSET 0.000000 14.033295 7.520400
								CHANNELS 3 Xrotation Yrotation Zrotation
								JOINT Head
								{
									OFFSET 0.000000 8.198502 5.703100
									CHANNELS 3 Xrotation Yrotation Zrotation
									JOINT HeadTop_End
									{
										OFFSET 0.000000 17.760803 13.332701
										CHANNELS 3 Xrotation Yrotation Zrotation
										End Site
										{
											OFFSET 0 0 0
										}
									}
								}
							}
						}
						JOINT LeftShoulder_virtual
						{
							OFFSET 0.000000 0.000000 0.000000
							CHANNELS 3 Xrotation Yrotation Zrotation
							JOINT LeftShoulder
							{
								OFFSET 6.292450 5.785301 -0.669000
								CHANNELS 3 Xrotation Yrotation Zrotation
								JOINT LeftShoulder_split
								{
									OFFSET 6.292450 5.785301 -0.669000
									CHANNELS 3 Xrotation Yrotation Zrotation
									JOINT LeftArm
									{
										OFFSET 13.907140 -6.093903 1.965100
										CHANNELS 3 Xrotation Yrotation Zrotation
										JOINT LeftForeArm
										{
											OFFSET 34.140198 0.000000 0.000000
											CHANNELS 3 Xrotation Yrotation Zrotation
											JOINT LeftHand
											{
												OFFSET 40.960209 0.000000 0.000000
												CHANNELS 3 Xrotation Yrotation Zrotation
												End Site
												{
													OFFSET 0 0 0
												}
											}
										}
									}
								}
							}
						}
						JOINT RightShoulder_virtual
						{
							OFFSET 0.000000 0.000000 0.000000
							CHANNELS 3 Xrotation Yrotation Zrotation
							JOINT RightShoulder
							{
								OFFSET -6.292450 5.785301 -0.669000
								CHANNELS 3 Xrotation Yrotation Zrotation
								JOINT RightShoulder_split
								{
									OFFSET -6.292450 5.785301 -0.669000
									CHANNELS 3 Xrotation Yrotation Zrotation
									JOINT RightArm
									{
										OFFSET -13.907140 -6.093903 1.965100
										CHANNELS 3 Xrotation Yrotation Zrotation
										JOINT RightForeArm
										{
											OFFSET -34.140198 0.000000 0.000000
											CHANNELS 3 Xrotation Yrotation Zrotation
											JOINT RightHand
											{
												OFFSET -40.960209 0.000000 0.000000
												CHANNELS 3 Xrotation Yrotation Zrotation
												End Site
												{
													OFFSET 0 0 0
												}
											}
										}
									}
								}
							}
						}
					}
				}
			}
		}
	}
}
MOTION
Frames: 5
Frame Time: 0.03333333
-0.101806 89.768600 -8.777166 0.000000 0.000000 0.000000 -12.790489 3.400187 1.217506 -33.866598 -5.000332 12.428535 69.336542 -0.975951 0.793099 -20.796592 -3.419487 -12.390265 -2.806270 -0.487504 0.206495 0.000000 0.000000 0.000000 -12.316272 2.460205 1.088407 -26.396369 -3.558358 -17.942168 69.659692 2.208164 -1.157006 -27.254605 -3.813850 11.419796 -0.074168 0.455033 -0.056908 0.000000 0.000000 0.000000 -12.108937 2.568341 0.814194 25.461299 -2.145936 0.443473 13.716305 -0.122854 1.099354 0.073621 0.792891 0.260003 0.000000 0.000000 0.000000 14.448727 -0.192794 0.978970 14.165807 -2.184947 -0.767043 -10.662746 -3.857236 -0.422525 0.000000 0.000000 0.000000 15.039831 -0.296731 0.685183 0.921793 -20.606150 -4.412577 -1.562419 -0.078967 -4.059974 -29.137860 0.466990 -58.251726 -136.060155 -75.700216 -134.731779 0.000000 0.000000 0.000000 14.816890 0.058264 1.025956 8.020688 3.795061 21.963424 0.637370 3.550817 3.746868 -27.106012 20.942992 42.884347 -100.867530 65.111094 92.734517 0.000000 0.000000 0.000000 
-0.247118 90.311699 -8.334368 0.000000 0.000000 0.000000 -13.511684 3.226338 0.967654 -32.126843 -4.938945 12.605476 68.602625 -0.950383 0.887769 -20.964439 -3.147327 -12.392090 -2.914445 -0.468972 0.232228 0.000000 0.000000 0.000000 -13.010695 2.626241 0.858041 -24.907671 -3.459304 -17.407072 68.996980 2.093257 -1.161857 -27.459666 -3.866895 11.297103 -0.017326 0.437181 -0.007541 0.000000 0.000000 0.000000 -13.057102 2.411593 0.695849 25.072344 -1.728910 0.218005 13.187401 -0.048511 1.174965 -0.182067 0.300124 0.210567 0.000000 0.000000 0.000000 13.586561 -0.118317 0.964283 13.180326 -2.249196 -1.095613 -9.458691 -3.716429 -0.292145 0.000000 0.000000 0.000000 14.721006 -0.320367 0.726538 0.775222 -20.534136 -5.684129 -0.993180 -0.519244 -3.519287 -26.828471 -1.106714 -58.482743 -133.183990 -78.246975 -131.810603 0.000000 0.000000 0.000000 14.231524 0.139128 1.160584 8.021044 4.200683 22.566014 0.481917 3.003997 4.043874 -24.001841 20.004676 41.275103 -100.660480 65.040196 92.356431 0.000000 0.000000 0.000000 
-0.457299 91.086441 -7.920191 0.000000 0.000000 0.000000 -14.311950 3.042106 0.737199 -30.178706 -4.935090 12.849076 67.522670 -0.943117 0.964038 -20.882622 -2.921337 -12.447031 -2.962160 -0.456605 0.248218 0.000000 0.000000 0.000000 -13.804921 2.791008 0.671840 -23.186803 -3.541052 -16.897963 67.986371 1.993518 -1.132851 -27.519109 -3.918890 11.189524 0.003203 0.420875 0.040105 0.000000 0.000000 0.000000 -14.101363 2.476904 0.506616 24.415473 -1.263876 0.078975 12.784931 0.015378 1.260768 -0.219433 0.164878 0.240484 0.000000 0.000000 0.000000 12.913356 -0.075583 0.962212 11.950353 -2.277689 -1.518052 -8.647790 -3.548264 -0.155785 0.000000 0.000000 0.000000 14.432888 -0.338250 0.820695 0.663092 -20.834264 -6.948332 -0.993393 -0.913321 -3.207080 -24.077088 -3.674535 -57.865171 -125.015698 -80.684362 -123.195016 0.000000 0.000000 0.000000 13.692138 0.166448 1.328675 7.837428 4.385971 23.282197 -0.138755 2.871057 4.084040 -20.230559 20.010940 39.474259 -102.804927 66.225637 94.197202 0.000000 0.000000 0.000000 
-0.691904 91.983353 -7.550406 0.000000 0.000000 0.000000 -15.073925 2.872262 0.573185 -28.233890 -4.959907 13.108494 66.200352 -0.939069 0.990158 -20.555079 -2.760658 -12.507097 -2.956383 -0.454476 0.260493 0.000000 0.000000 0.000000 -14.607562 2.895071 0.566094 -21.465171 -3.807246 -16.499111 66.688656 1.921391 -1.067787 -27.370450 -3.965189 11.121913 -0.042162 0.409101 0.069098 0.000000 0.000000 0.000000 -15.065797 2.774053 0.312348 23.712301 -0.841933 0.021074 12.447087 0.051890 1.308880 0.059897 0.303598 0.475914 0.000000 0.000000 0.000000 12.431480 -0.063410 0.967162 10.323663 -2.257295 -1.955852 -8.415871 -3.405622 0.018215 0.000000 0.000000 0.000000 14.042699 -0.348402 0.943310 0.650482 -21.227053 -7.823989 -1.287568 -1.139006 -3.337928 -21.891088 -6.168876 -56.579412 -114.225024 -82.443443 -111.555151 0.000000 0.000000 0.000000 13.176457 0.137633 1.480419 7.565152 4.187669 23.990771 -1.113875 2.937999 4.097983 -16.428169 20.334711 38.254267 -106.467069 68.384496 97.318666 0.000000 0.000000 0.000000 
-0.900137 92.906975 -7.243090 0.000000 0.000000 0.000000 -15.706051 2.747488 0.496846 -26.509839 -5.010790 13.329798 64.816733 -0.915364 0.959816 -20.076368 -2.644717 -12.507913 -2.886952 -0.457037 0.265328 0.000000 0.000000 0.000000 -15.302011 2.954765 0.536005 -19.884701 -4.214359 -16.223199 65.220800 1.873682 -0.968525 -27.080553 -4.027338 11.087499 -0.144785 0.403532 0.070544 0.000000 0.000000 0.000000 -15.856484 3.192103 0.181253 23.105958 -0.538486 0.033705 12.078583 0.052252 1.285274 0.516173 0.463934 0.730687 0.000000 0.000000 0.000000 12.031469 -0.078355 0.970618 8.264913 -2.172592 -2.313047 -8.846824 -3.386265 0.257605 0.000000 0.000000 0.000000 13.540513 -0.349944 1.037128 0.748903 -21.459437 -8.288681 -1.900336 -1.018792 -4.013186 -20.321421 -7.810609 -55.363119 -106.101128 -83.773383 -102.315182 0.000000 0.000000 0.000000 12.653584 0.065035 1.538989 7.301722 3.638383 24.635661 -1.891917 3.209094 4.019743 -13.101379 20.337539 38.033717 -111.145858 71.158263 101.186432 0.000000 0.000000 0.000000 
